<?xml version="1.0" encoding="utf-8"?>
<!-- Generator: Adobe Illustrator 22.0.0, SVG Export Plug-In . SVG Version: 6.00 Build 0)  -->
<svg version="1.1" id="Слой_1" xmlns="http://www.w3.org/2000/svg" xmlns:xlink="http://www.w3.org/1999/xlink" x="0px" y="0px"
	 viewBox="0 0 90 81" style="enable-background:new 0 0 90 81;" xml:space="preserve">
<style type="text/css">
	.st0{fill:none;}
	.st1{fill:#FFFFFF;}
</style>
<g transform="translate(0.000000,81.000000) scale(0.100000,-0.100000)">
	<path d="M10,405V5l273,2l272,3l3,398l2,397H285H10V405z M482.8,405V80h-200h-200v318c0,175,3,322,7,325c3,4,93,7,200,7h193"/>
	<path d="M218.4,514.8c-45-29-60-59-64-130c-6-86,11-138,56-168c44-30,122-31,169-3c38,23,39,29,7,52c-22,17-25,17-53,1
		c-66-38-121,27-107,124c11,73,75,103,126,57c14-12,18-11,38,10l22,23l-31,27C342.4,540.8,262.4,543.8,218.4,514.8z"/>
	<path d="M650,45V5h120h120v40v40H770H650V45z"/>
</g>
<rect x="4" y="5.4" width="4.6" height="68.4"/>
<rect x="6.5" y="4.4" width="41.6" height="3"/>
<rect x="9.1" y="8" class="st1" width="39" height="0.4"/>
<rect x="8.6" y="8" class="st1" width="4.4" height="3.5"/>
<rect x="19" y="21.4" class="st1" width="4.4" height="3.5"/>
<rect x="8.6" y="9.8" class="st1" width="1.8" height="5.5"/>
<rect x="0.4" y="79.8" class="st1" width="88.9" height="1.2"/>
</svg>
